<?xml version="1.0" standalone="no"?>
<!DOCTYPE svg PUBLIC "-//W3C//DTD SVG 20010904//EN"
 "http://www.w3.org/TR/2001/REC-SVG-20010904/DTD/svg10.dtd">
<svg version="1.0" xmlns="http://www.w3.org/2000/svg"
 width="982.000000pt" height="982.000000pt" viewBox="0 0 982.000000 982.000000"
 preserveAspectRatio="xMidYMid meet">
<metadata>
Created by potrace 1.11, written by Peter Selinger 2001-2013
</metadata>
<g transform="translate(0.000000,982.000000) scale(0.100000,-0.100000)"
fill="#000000" stroke="none">
<path d="M271 9035 c-105 -55 -162 -110 -207 -200 l-35 -70 -9 -690 c-12 -859
-12 -4200 -1 -4858 l9 -488 27 -54 c35 -72 158 -195 231 -231 l56 -27 326 -8
c180 -4 1035 -8 1900 -8 l1572 -1 0 -525 0 -525 -695 0 -695 0 0 -305 0 -305
2165 0 2165 0 0 305 0 305 -700 0 -700 0 0 525 0 525 1578 1 c867 0 1723 4
1902 8 l325 8 55 28 c70 36 189 154 225 225 27 52 29 66 36 225 4 94 8 1452 8
3019 l1 2848 -37 62 c-52 85 -125 159 -208 211 l-72 45 -4569 0 -4569 -1 -84
-44z m8925 -3137 c-3 -1415 -9 -2596 -12 -2625 l-6 -51 -206 154 -207 154
-555 -1 c-305 0 -573 -3 -595 -7 l-40 -7 95 -76 c52 -41 194 -151 314 -244
l219 -170 -257 -3 -257 -2 -334 255 -335 255 -2108 0 -2107 0 -335 -255 -335
-255 -254 0 c-220 0 -252 2 -241 14 6 8 134 110 283 226 325 252 322 249 313
258 -10 9 -1143 9 -1178 -1 -21 -5 -281 -194 -415 -300 -10 -7 -13 518 -13
2622 l0 2631 4286 0 4286 0 -6 -2572z"/>
<path d="M5089 7644 c-25 -5 -27 -14 -103 -332 -295 -1238 -591 -2486 -627
-2646 -42 -183 -43 -188 -24 -202 14 -11 60 -14 196 -14 154 0 180 2 198 18
15 13 33 66 70 217 85 342 558 2303 679 2815 17 70 26 129 21 134 -9 10 -364
18 -410 10z"/>
<path d="M3910 7129 c-232 -101 -1224 -530 -1602 -695 l-318 -138 0 -257 0
-256 563 -246 c1034 -452 1539 -668 1546 -662 3 4 6 137 6 297 l0 290 -700
279 c-811 324 -725 289 -725 298 0 15 304 137 1031 416 l387 148 7 223 c8 238
1 374 -18 374 -7 0 -86 -32 -177 -71z"/>
<path d="M5717 6908 c3 -161 8 -296 12 -299 3 -4 256 -104 561 -222 669 -259
870 -339 870 -348 0 -7 -628 -259 -1227 -494 l-223 -87 1 -161 c1 -89 4 -220
8 -292 6 -121 7 -130 25 -127 26 5 279 114 1181 507 413 180 784 342 825 360
l75 32 2 259 3 259 -613 264 c-336 146 -803 347 -1037 448 -234 101 -435 186
-446 189 l-22 6 5 -294z"/>
</g>
</svg>
