<svg version="1" xmlns="http://www.w3.org/2000/svg" width="108" height="108" viewBox="0 0 81.000000 81.000000"><path d="M57.6 8.7c-4.4 4.3-8.9 8.8-9.9 9.9-1.6 1.8-2.4 2.1-5 1.3-8.3-2.4-17.8-.8-24.5 4.1C4.3 34 1.6 52 11.8 65.5 22.1 79 42.6 80.4 54.7 68.3c7.5-7.5 10.3-17.8 7.7-28l-1.3-5.2 9.4-9.8c8.7-8.9 10.8-12.3 8.7-13.7-.4-.2-5.2 4-10.7 9.5-5.5 5.4-10.2 9.4-10.4 8.8-.1-.5 4.3-5.7 9.9-11.5 7.7-7.9 10.1-11 9.8-12.7-.2-1.4-1.1-2.3-2.4-2.5-1.6-.2-5.1 2.5-13 10.1-6 5.8-11.2 10.3-11.6 10.1-.4-.3 3.5-4.8 8.7-10.2C64.7 7.9 69 3 69 2.3c0-3-3.7-.8-11.4 6.4zM41.6 24c3.6 1.4 2.3 2.6-4.9 4.5-8.2 2.1-13.1 0-9.1-3.9 1.8-1.9 9.8-2.2 14-.6zm-19.2 4.7c-2.5 3.3-7.2 6.9-8 6.1-.9-.9 2.6-5.2 6.1-7.5 3.8-2.6 4.4-2 1.9 1.4zm25.5 4.7c3.1 3.2 3.2 3.4 2 7.8-1.1 4-1.6 4.6-5.2 5.5-3.8 1-4.1.9-7.7-2.5-3.1-2.9-3.7-4-3.3-6.6.7-4.9 1-5.5 4.5-6.4 5.5-1.4 6.4-1.2 9.7 2.2zm-30.3 6.3c1.5 2 1.8 5.9.5 6.7-.4.3-1.1 2.4-1.5 4.6-.6 3.6-.9 4-3.6 4-2.6 0-3-.4-3.1-2.8-.3-5.7.2-10.5 1.2-12.3 1.2-2.4 4.8-2.5 6.5-.2zm40.3-.3c1.8 2.2 1.8 13.6 0 14.7-2.1 1.3-2.7 1.1-4.5-1.7-2.1-3.1-2.1-7.2.1-11.3 1.7-3.4 2.7-3.8 4.4-1.7zm-23.5 6.8c3.6 2.9 3.8 3.4 3.3 7.5-.2 2.4-.7 4.6-1 4.9-.3.3-3 1.1-6 1.8l-5.6 1.3-3.1-3.2c-3-3.1-3.1-3.5-2.1-7.1 1.5-5.4 2.3-6.4 5.7-7 1.6-.3 3.1-.7 3.3-1 .8-.8 1.7-.4 5.5 2.8zM57 58.7c0 1.3-4.3 6.3-7.3 8.6l-3.4 2.6.5-2.4c.5-3 7.3-10.3 9-9.7.6.2 1.2.6 1.2.9zm-13.6 8.8c-.7 4-1.1 4.3-6.7 4.8-6.2.7-12.1-.9-11.3-3 .3-.8.6-2.2.6-3.2s.9-1.7 2.3-1.9c1.3-.1 4.2-.8 6.3-1.5 3.4-1.2 4.3-1.1 6.6.2s2.7 2 2.2 4.6zM2.4 71.5c-.8 2-1.7 5-2.1 6.7l-.6 3 4-.5c9-1.3 10.5-3.4 5.9-8.5-4.1-4.6-5.5-4.7-7.2-.7z"/></svg>